<?xml version="1.0" standalone="no"?>
<!DOCTYPE svg PUBLIC "-//W3C//DTD SVG 20010904//EN"
 "http://www.w3.org/TR/2001/REC-SVG-20010904/DTD/svg10.dtd">
<svg version="1.0" xmlns="http://www.w3.org/2000/svg"
 width="2150.000000pt" height="2150.000000pt" viewBox="0 0 2150.000000 2150.000000"
 preserveAspectRatio="xMidYMid meet">

<g transform="translate(0.000000,2150.000000) scale(0.100000,-0.100000)"
fill="#000000" stroke="none">
<path d="M13200 21409 c-206 -19 -491 -82 -695 -153 -55 -19 -2537 -766 -5515
-1660 -2978 -894 -5455 -1641 -5505 -1661 -295 -117 -583 -300 -802 -508 -345
-329 -544 -719 -592 -1159 -15 -136 -15 -14449 0 -14586 91 -845 746 -1500
1591 -1591 137 -15 17999 -15 18136 0 845 91 1500 746 1591 1591 15 137 15
13020 0 13156 -47 438 -235 818 -552 1118 -239 226 -538 381 -882 456 l-100
22 -7100 6 c-3905 3 -7097 6 -7092 8 4 1 2524 482 5600 1069 l5592 1067 170 0
c148 1 180 -2 250 -22 127 -37 209 -85 300 -176 68 -68 89 -98 133 -186 82
-166 115 -325 130 -625 8 -141 12 -167 34 -217 33 -72 103 -142 176 -176 49
-23 70 -27 147 -27 82 0 97 3 157 33 74 36 133 95 169 170 20 41 24 66 27 191
12 432 -110 881 -318 1173 -126 177 -330 348 -523 438 -241 113 -548 167 -819
143 -154 -14 -15132 -2865 -15195 -2893 -57 -25 -140 -104 -168 -160 -74 -146
-45 -312 74 -423 29 -27 73 -58 99 -70 l47 -22 9010 -5 c8651 -5 9013 -6 9084
-24 430 -104 748 -430 826 -847 14 -76 15 -727 13 -6634 l-3 -6550 -27 -90
c-76 -256 -229 -468 -438 -607 -105 -70 -196 -112 -320 -146 l-95 -27 -9065 0
-9065 0 -95 27 c-256 71 -472 226 -612 438 -70 105 -112 196 -146 320 l-27 95
0 7285 0 7285 23 85 c60 219 204 441 393 607 172 150 435 298 653 367 61 20
2512 756 5446 1637 2934 880 5366 1611 5403 1625 178 63 438 112 642 121 218
9 376 -17 520 -87 260 -125 390 -398 414 -865 6 -115 15 -195 25 -223 108
-298 518 -320 658 -34 l33 67 -1 165 c-2 255 -36 474 -109 698 -233 707 -855
1068 -1705 991z"/>
<path d="M1763 15006 c-174 -55 -285 -230 -254 -399 26 -140 112 -238 256
-291 22 -8 2093 -12 7719 -16 l7689 -5 22 -112 c81 -402 257 -777 510 -1088
93 -115 306 -323 410 -401 233 -176 433 -286 692 -380 102 -36 338 -98 421
-109 l52 -7 0 -3934 c0 -3139 -3 -3935 -12 -3938 -7 -2 -56 -12 -108 -21 -52
-10 -147 -32 -210 -51 -896 -260 -1577 -1003 -1754 -1914 l-23 -115 -7699 -5
-7699 -5 -67 -33 c-286 -140 -265 -540 34 -660 40 -16 515 -17 7903 -20 5831
-2 7875 0 7920 9 82 15 142 48 198 108 76 81 87 117 102 320 22 284 67 464
171 681 95 198 199 345 349 495 150 150 297 254 495 349 217 104 397 149 681
171 203 15 239 26 320 102 60 56 93 116 109 198 8 44 10 1182 8 4365 -3 4102
-4 4307 -21 4350 -39 99 -123 182 -219 216 -26 9 -106 19 -198 24 -480 27
-873 206 -1200 546 -136 142 -223 266 -309 439 -116 233 -163 414 -185 707
-12 166 -15 182 -45 242 -36 74 -90 126 -171 165 l-55 26 -7895 2 c-6511 1
-7902 -1 -7937 -11z"/>
<path d="M1791 12880 c-67 -14 -131 -50 -181 -100 -174 -174 -126 -462 96
-571 64 -32 67 -32 267 -40 616 -25 1114 -152 1647 -420 927 -466 1639 -1296
1959 -2284 120 -369 176 -697 188 -1095 25 -852 -229 -1684 -726 -2378 -633
-885 -1606 -1469 -2678 -1607 -67 -9 -229 -22 -360 -29 -272 -15 -297 -21
-384 -103 -153 -143 -153 -373 0 -516 93 -87 113 -92 361 -92 904 1 1889 341
2649 916 198 149 309 246 501 439 273 273 476 528 670 843 719 1165 881 2609
439 3903 -265 776 -718 1451 -1339 1997 -734 645 -1673 1045 -2645 1126 -185
16 -415 21 -464 11z"/>
<path d="M1769 11097 c-107 -30 -200 -114 -241 -216 -20 -50 -22 -77 -26 -271
-5 -302 13 -376 117 -473 72 -67 123 -87 250 -98 139 -12 190 -24 286 -69 243
-113 395 -332 411 -592 9 -144 33 -216 99 -286 78 -85 152 -117 265 -117 76 0
93 4 152 33 108 53 179 148 198 266 21 127 -25 399 -96 580 -154 389 -486 700
-884 829 l-75 24 -8 69 c-14 133 -95 247 -212 300 -66 30 -170 40 -236 21z"/>
<path d="M7100 9385 c-88 -12 -97 -16 -126 -48 -46 -50 -54 -88 -65 -302 -4
-104 -16 -323 -26 -485 -9 -162 -17 -440 -18 -617 0 -311 1 -322 21 -350 39
-53 83 -75 140 -71 60 5 105 33 128 82 13 27 16 68 16 203 0 94 3 224 6 290
l7 119 81 -4 c342 -18 666 190 741 475 19 70 21 222 5 283 -41 156 -202 317
-390 389 -41 16 -102 34 -134 40 -77 14 -265 12 -386 -4z m332 -296 c108 -23
228 -103 262 -173 9 -20 16 -59 16 -93 -1 -180 -175 -316 -407 -318 -50 0 -94
3 -98 7 -4 3 -2 86 4 183 6 96 11 227 11 290 l0 115 80 0 c43 0 103 -5 132
-11z"/>
<path d="M13145 9336 c-36 -16 -92 -77 -111 -122 -7 -17 -33 -112 -58 -210
-52 -210 -144 -512 -215 -708 -28 -76 -52 -141 -55 -143 -12 -12 -101 359
-155 643 -44 236 -72 353 -100 416 -55 127 -192 158 -289 65 -71 -68 -106
-173 -176 -525 -28 -139 -75 -330 -121 -484 -88 -302 -111 -401 -124 -536 -14
-149 5 -204 85 -243 34 -16 57 -20 93 -17 105 10 149 78 181 274 19 112 143
627 167 692 7 18 20 -25 62 -190 73 -296 177 -636 207 -679 50 -73 138 -97
219 -60 83 37 119 105 226 416 150 440 207 591 213 565 3 -14 17 -90 31 -170
24 -132 50 -249 130 -590 32 -134 60 -195 109 -238 77 -67 201 -48 257 40 30
48 21 104 -60 393 -84 297 -135 535 -191 898 -45 296 -65 372 -113 443 -52 77
-134 104 -212 70z"/>
<path d="M10990 9179 c-38 -16 -78 -59 -91 -97 -8 -24 -9 -75 -4 -163 l7 -129
-115 6 c-105 6 -119 5 -159 -15 -113 -54 -118 -220 -8 -273 21 -9 87 -21 160
-28 69 -6 126 -13 127 -14 8 -8 24 -595 19 -719 -7 -181 -1 -207 60 -253 32
-25 46 -29 100 -29 72 0 106 19 136 77 38 73 42 141 29 546 -7 211 -10 386 -6
390 3 3 70 9 148 12 163 6 183 14 218 87 38 79 13 164 -62 208 -30 17 -52 20
-175 20 l-142 0 -4 115 c-7 185 -53 260 -162 267 -28 1 -62 -2 -76 -8z"/>
<path d="M15255 8816 c-16 -8 -43 -28 -60 -45 l-30 -32 -1 -242 c-1 -133 -4
-264 -8 -292 -19 -148 -25 -385 -13 -515 15 -155 25 -178 93 -211 55 -26 131
-23 172 8 55 41 63 63 73 189 23 315 31 379 56 449 76 214 203 367 306 369 64
1 66 -7 60 -288 -5 -222 -3 -257 21 -441 28 -209 38 -241 88 -278 43 -32 132
-34 182 -5 84 48 95 120 56 367 -13 86 -21 199 -24 347 -6 249 -20 347 -66
441 -52 105 -138 160 -266 170 -121 10 -234 -30 -346 -121 l-56 -45 -6 49
c-14 108 -130 171 -231 126z"/>
<path d="M10070 8774 c-90 -19 -166 -49 -241 -94 l-64 -38 -20 41 c-27 56 -63
79 -127 84 -72 5 -116 -18 -145 -77 l-23 -44 0 -541 c0 -521 1 -541 20 -573
43 -71 128 -91 210 -49 79 40 80 45 80 413 l0 322 42 62 c66 99 189 181 304
203 31 6 31 6 38 -46 3 -29 6 -68 6 -87 1 -160 246 -177 299 -21 17 52 14 225
-6 295 -21 73 -78 139 -138 155 -53 15 -155 13 -235 -5z"/>
<path d="M8620 8754 c-335 -72 -550 -444 -475 -822 40 -198 174 -360 360 -432
52 -21 77 -24 185 -24 139 1 200 16 291 75 63 40 157 142 197 212 124 219 126
559 6 764 -39 67 -125 155 -182 186 -102 56 -245 71 -382 41z m220 -316 c36
-18 51 -35 72 -78 51 -102 61 -290 22 -405 -46 -132 -210 -210 -329 -156 -91
41 -145 141 -145 271 0 263 201 458 380 368z"/>
<path d="M14320 8754 c-335 -72 -550 -444 -475 -822 40 -198 174 -360 360
-432 52 -21 77 -24 185 -24 139 1 200 16 291 75 63 40 157 142 197 212 124
219 126 559 6 764 -39 67 -125 155 -182 186 -102 56 -245 71 -382 41z m220
-316 c36 -18 51 -35 72 -78 51 -102 61 -290 22 -405 -46 -132 -210 -210 -329
-156 -91 41 -145 141 -145 271 0 263 201 458 380 368z"/>
<path d="M16860 8755 c-183 -42 -346 -187 -424 -381 -74 -181 -77 -446 -7
-582 96 -187 329 -302 610 -302 223 0 468 99 526 211 17 32 20 121 5 150 -6
10 -25 26 -42 35 -47 24 -113 14 -210 -34 -46 -22 -101 -46 -123 -54 -59 -19
-256 -17 -325 4 -66 21 -156 76 -144 88 5 5 113 54 239 110 127 56 271 123
320 148 102 52 189 128 216 187 22 46 25 138 7 197 -26 89 -139 176 -274 212
-85 24 -293 30 -374 11z m260 -288 c106 -25 105 -28 -27 -95 -116 -59 -369
-172 -385 -172 -13 0 -9 19 17 74 81 172 212 236 395 193z"/>
<path d="M17765 8747 c-54 -31 -85 -79 -85 -134 0 -46 18 -87 74 -176 39 -61
263 -466 359 -647 l66 -125 -25 -55 c-67 -143 -175 -404 -199 -483 -20 -63
-26 -100 -22 -133 11 -101 130 -162 231 -120 48 20 69 53 116 183 90 250 123
321 468 1033 126 262 231 487 232 500 5 58 -2 81 -32 116 -78 89 -191 85 -261
-8 -45 -59 -138 -237 -229 -437 -49 -108 -92 -199 -96 -203 -4 -4 -43 61 -87
144 -167 316 -304 526 -361 553 -45 21 -102 18 -149 -8z"/>
<path d="M1763 8606 c-330 -108 -347 -553 -26 -679 25 -10 96 -22 163 -27 201
-16 348 -86 479 -226 253 -271 253 -687 1 -957 -132 -141 -278 -211 -481 -227
-168 -14 -255 -54 -324 -148 -65 -88 -70 -118 -70 -397 l0 -250 32 -67 c54
-114 149 -188 267 -206 210 -33 395 116 413 334 l5 61 87 28 c320 103 619 348
788 644 249 437 249 969 -1 1414 -127 228 -378 462 -619 576 -100 47 -243 94
-357 116 -119 23 -303 29 -357 11z"/>
</g>
</svg>
